<svg xmlns="http://www.w3.org/2000/svg" viewBox="0 0 1000 1106">
  <path fill="white" d="M173.26 14.99c-1.58 3.47-5.4 6.46-8.57 8.45-5.75 3.59-39.68 21.74-13.68 25.73q11.45 1.76 22.99 2.84c3.04.28 10.58 1.53 12.34 4.25 3.82 5.89-24.02 31.17-28.29 35.54q-2.7 2.76-4.3 6.21a1.48 1.47 15.2 0 0 1.2 2.09c2.77.26 5.15-.18 7.85-1.46q11.54-5.45 23.01-11.08 2.77-1.36 7-2.05c9.74-1.58 6.06 12.34 4.95 17.33-1.28 5.73-4.38 16.9-3.23 22.4 1.43 6.8 7.49-.35 8.89-2.4 5.01-7.39 10.13-16.67 16.9-22.27q1.99-1.65 4.87-.9.48.12.72.56c3.54 6.35 2.97 19.47 3.08 26.77q.11 7.22 1.98 13.24c.71 2.29 3.52 3.38 5.2.94.86-1.25 2.02-3.54 2.52-5.35q3.03-10.88 5.81-21.83c1.28-5.01 5.44-17.4 11.96-6.32 2.81 4.77 7.73 16.16 13.22 17.61q.51.13.98-.09c4.28-2.04 3.24-19.27 3.14-23.71-.32-13.78 7.73-8.34 14.04-3.06q11.35 9.48 22.24 19.5 3.49 3.21 7.09 4.71a1.66 1.65-85.5 0 0 2.24-1.92c-4.41-18.15-16.59-34.31-17.33-50.7-1-22.25 47.08 12.23 54.51 2.92 4.18-5.23-6.71-16.69-10.11-20.17q-9.96-10.16-19.75-20.5c-3.44-3.63-8.85-9.95-3.91-14.46q4.63-4.24 14.16-7.37 21.48-7.05 45.46-8.53c5.99-.38 13.11-1.06 17.77 1.52q.45.25.62.73c3.2 9.04-41.01 16.65-44.53 26.51-4.02 11.22 46.14 48.28 49.12 64.94 2.42 13.55-16.63 8.63-23.12 6.71Q363.87 96.85 345.55 91c-4.03-1.29-10.1-3.07-14.25-1.94q-.48.14-.77.55c-2.13 3.07 1.09 11.45 2.77 15.37q7.4 17.29 14.58 34.68c2.14 5.21 6 16.96 3.13 22.1-4.29 7.68-20.12-4.95-24.21-8.31q-11.41-9.39-22.78-18.83c-3.23-2.67-9.39-7.16-13.51-6.63-4.75.61-6.74 17.34-7.43 21.03-1.1 5.82-4.72 14.11-11.61 6.28-5.28-6.01-10.46-13.39-15.87-14.24q-.49-.08-.92.19c-2.63 1.63-4.73 8.72-5.61 12.04-3.46 13.11-6.53 26.5-11.25 39.23q-2.22 5.97-5.09 7.97c-9.96 6.95-12.86-17.94-13.48-23.15-1.2-10.04-1.74-20.91-5.53-30.34a2.24 2.23-14 0 0-2.33-1.39c-5.81.62-13.27 9.33-17.51 13.26-7.7 7.12-19.8 9.44-19.63-5.37.1-9.04 1.59-17.64 2.5-27.75.25-2.72.28-8.75-2.35-10.35-4.15-2.53-19.3 6.45-23.87 8.87-12.76 6.77-25.54 14.33-38.84 19.16-4.07 1.48-11.38 3.11-12.77-2.54-1.5-6.1 11.19-21.11 16.08-26.64q13.61-15.39 27.05-30.93c3.21-3.72 7.81-8.51 8.55-13.53q.09-.58-.34-1c-5.11-4.96-30.11-4.01-37.51-4.03q-8.74-.02-17.27-1.75c-17.23-3.5 26.07-27.99 28.91-29.79 2.82-1.78 5.47-3.82 7.64-5.91 4.2-4.02-3.72-6.43-6.97-7.34q-9.93-2.76-19.89-5.35C101 13.53 91.7 10.75 92.74 6.71c2.69-10.38 49.4-5 58.04-3.67 5.83.89 25.76 4.74 22.48 11.95ZM587.86 22.03a2.31 2.3 14.3 0 0 2.72-1.61c.56-1.94 1.14-3.6 1.2-5.63.12-3.8.05-12.4 2.54-14.23 2.31-1.68 9.59 6.63 11.42 8.34 3.47 3.24 6.07 3.54 10.35 1.98 9.96-3.62 22.32-7.83 32.87-8.68 44.27-3.59 80.48 24.91 79.14 71.39-.8 27.74-14.14 50.49-39.14 62.62-14.35 6.97-32.89 9-48.71 4.81-9.98-2.65-18.87-8.04-27.69-12.84-7.93-4.32-10.15 12.33-17.37 12.92q-.61.06-.8-.53c-1.53-4.76-2.31-19.58-6.34-21.68-1.93-1.01-4.16.61-5.59 1.82q-8.54 7.21-17.22 14.26-2.47 2.01-5.7 3.11a1.37 1.37 0 0 1-1.79-1.57q.62-3.12 2.16-6.14c4.14-8.09 9.26-16.38 12.36-24.87 1.56-4.23-.89-5.48-4.58-6.14q-6.11-1.09-12.26-1.94c-10.95-1.51 10.94-15.39 12.15-16.33 13.42-10.33-2.69-16.05-10.73-19.76-2.71-1.26-5.36-4.79-1.79-6.78q9.01-5.01 13.44-7.8 4.89-3.08 1.68-8.18-6.95-11.01-14.06-21.91-2.3-3.52-3.21-7.7a1.26 1.25 84.1 0 1 1.24-1.53q4.22.06 8.48 2.35c7.54 4.06 16.92 10.41 25.23 12.25Zm72.64 49.62c4.39 4.41 19.62 17.04 18.35 22.66q-.11.49-.56.7-1.86.86-3.8.55-13.73-2.25-24.23-3.35-1.88-.2-3.14 1.42-.32.4-.21.9c1.47 6.55 3.93 12.47 5.2 19.1a1.84 1.84 0 0 1-1.84 2.18c-5.44-.09-29.09-16.54-30.61-6.51q-.29 1.91 1.27 4.06c6.31 8.66 20.82 12.38 30.77 12.79 28.27 1.16 46.82-18.88 49.74-45.75 1.54-14.26-.52-30.71-7.56-43.06-10.87-19.08-34.2-24.41-54.4-19.44q-6.74 1.66-12.1 5.98c-3.47 2.78-6.74 10.34.44 11.37 9.04 1.3 22.97-7.36 28.51-4.6q.43.22.43.7c.02 5.87-6.34 10.37-5.94 16.06q.04.53.51.75 2.93 1.37 4.74 1.5 11.52.84 22.99 2.03 2.7.28 4.68 1.97.44.38.21.91c-2.92 6.72-22.9 10.6-23.73 13.91a3.79 1.73-70.5 0 0 .28 3.17Zm-36.7-8.9c1.55-3.25 6.83-8.95 7.07-12.32q.06-.79-.71-.6c-5.11 1.28-9.49 3.78-14.71 4.47q-.52.07-.88-.32c-3.11-3.46-5.22-10.37-7.11-14.76a1.24 1.04-26.2 0 0-1.63-.4c-1.34.72-3.6 10.54-4.19 12.55-1.4 4.84-2.99 3.85-7.18 3.61q-3.96-.22-8.63-.77-1.52-.18-1.95 1.29c-.46 1.56 8.34 8.79 9.84 10.07q2.94 2.53-.05 5.29-4.83 4.46-10.02 9.61a1.06 1.06 0 0 0 .68 1.81q6.41.43 13.43.73 2.48.11 2.61 3.17.25 6.3.82 12.66a1.4 1.39-27.8 0 0 2.47.76c1.62-1.98 8.56-12.68 11.09-11.91q6.57 2.01 13.52 4.27a1.12 1.12 0 0 0 1.34-1.58l-5.84-11.14a2.07 2.06-35.5 0 1 .42-2.47c1.57-1.46 15.95-2.35 15.78-4.21a2.55 1.89-85.8 0 0-1.28-2.02l-13.93-5.38a1.78 1.77-66.7 0 1-.96-2.41Z"/>
  <path fill="white" d="M782.45 43.27q-14.41-17.75-36.48-24.18c-2.43-.7-18.22-4.52-18.21-6.53q0-.54.45-.84 2.17-1.48 3.03-1.74 22.48-6.92 46.02-6.61c13.35.18 39.26 4.06 32.62 24.71-3.17 9.83-8.41 22.59-2.68 30.2q4.9 6.53 14.37 3.28c9.23-3.16 6.3-28.89 5.49-36.49C825.59 11.35 834.72.68 848.72.95q2.1.04 11.1 2.21 7.62 1.84 15.56 2.25a.25.25 0 0 1 .13.45q-14.23 10.41-9.05 27.64c4.5 14.99 7.66 28.71 5.99 45.3-6.62 65.31-103.2 60.24-146.76 53.77q-1.07-.16-2.01-.69-.41-.22-.59-.65c-1.06-2.48 8.07-6.85 10.11-8.07 13.88-8.38 11.7-20.45 9.03-34.21-.4-2.06-.32-3.79 2.06-4.21a2.31 2.3 60.4 0 1 1.91.53c9.05 7.85 16.97 17.59 30.15 16.86 6.37-.36 11.76-3.49 13.69-9.71 4.72-15.25-12.41-23.23-23.15-26.99q-12.6-4.4-25.26-8.67c-.63-.21-1.46-.94-2.06-1.29a.95.95 0 0 1 .01-1.65c11.69-6.6 29.35-8.93 42.6-9.95q.72-.05.27-.6Zm73.15-23.8a7.48 7.48 0 0 0-7.48-7.48 7.48 7.48 0 0 0-7.48 7.48 7.48 7.48 0 0 0 7.48 7.48 7.48 7.48 0 0 0 7.48-7.48Zm-13.31 37.38c-1.63 30.37-25.01 47.8-53.17 51.97a.45.45 0 0 0 .05.89c21.45.68 56.95-1.97 64.67-27.11 2.95-9.59-.23-22.6-10.76-26.28q-.75-.26-.79.53ZM300.64 8.84c-13 5.58-18.72 12.09-4.09 21.58q6.42 4.17 12.84 8.33c2.27 1.46 6.64 4.82 4.7 7.91q-.25.39-.7.52-3.23.95-5.9.14-10.43-3.15-17.53-3.75c-8.08-.69-10.56 7.09-7.98 13.4q5.96 14.59 7.73 19.31 1.58 4.23-1.97 6.29-.45.27-.95.14-3.63-.9-5.86-3.89c-5.89-7.89-22.71-34.7-29.27-7.87-1.13 4.6-3.5 20.08-8.01 21.98-3.74 1.57-4.77-5.02-4.9-7.56-.43-8.02-.56-14.25-2.32-20.2-4.81-16.23-25.06 3.32-30.87 7.89q-3.03 2.38-6.03.13-.46-.34-.4-.91c1.21-10.58 19.78-21.83 15.65-30-2.52-4.99-21.89-1.2-26.78-.23q-4.82.97-9.49-.23-.48-.13-.79-.5C171.95 34.53 208 29.85 207.47 19c-.44-8.93-14.39-8.33-13.95-12.12q.06-.56.56-.8c6.57-3.25 14.99-3.5 22.67-3.52 7.09-.02 11.84 2.12 16.58 7.35 6.11 6.76 11.09 12.09 21.01 8.38 4.51-1.68 7.11-5.3 10.69-9.04 8.42-8.81 25.54-6.61 36.23-3.83a1.46 1.45 6.9 0 1 1.09 1.38q.01 1.3-1.71 2.04ZM408.13 36.72c1.03 4.38 1.06 17.12-5.21 18.24-6.68 1.19-25.79-9.65-28.52-16.44a2.35 2.35 0 0 1 1.32-3.06q10.81-4.31 22.34-3.96c5.13.15 8.81-.16 10.07 5.22ZM125.78 78.08a2.35 2.35 0 0 1 1.8 2.77q-.32 1.56-1.77 3.49c-7.35 9.73-17.26 18.68-29.05 22.37q-.5.16-.98-.06c-5.59-2.59-2.45-13.88-.71-18.34 4.44-11.37 20.75-12.42 30.71-10.23ZM405.91 148.33c3.91 5.85-.12 26.37-9.73 25.87q-.53-.03-.93-.36-5.46-4.43-9.16-8.68-15.76-18.08-27.95-38.74c-2.32-3.92-6.43-10.41-6.4-15a1.48 1.48 0 0 1 1.91-1.41c3.04.93 5.79 1.98 8.58 3.72q19.71 12.28 37.2 27.58 4.33 3.79 6.48 7.02ZM842.91 175.17c8.42-7.01 15.01-18.83 8.62-29.16a.24.23 77.8 0 1 .23-.36c11.29 1.54 16.68 9.51 16.69 20.56 0 19.62-22.03 37.03-38.6 43.21q-13.85 5.16-28.62 3.39c-9.77-1.18-18.12-8.88-10.19-18.77 3.13-3.89 13.94-3.83 18.93-4.49q18.67-2.5 32.94-14.38ZM159.56 152.94q.43.1.76.53c10.38 13.27 11.87 30.35 7.14 46.19q-.15.5-.67.49c-18.48-.22-42.94-8.95-44.29-30.9-1.35-21.75 22.29-31.05 37.06-16.31Z"/>
  <path fill="white" d="M839.92 159.13c-5.72 12.14-41.95 28.28-51.31 14.89-3.6-5.15-2.64-14.96-7.25-19.03a.48.48 0 0 1 .42-.83c15.39 3.29 26.41-.56 40.9-5.99 4.42-1.65 10.17-2.97 14.31-.84 4.35 2.25 4.89 7.63 2.93 11.8ZM574.19 159.94c9.69-11.56 27.82-12.13 40.88-6.96 4.09 1.62 8.37 4.56 12.54 6.92q.46.26.96.12c2.75-.74 10.41-5.77 10.92.22 1.35 15.69-3.97 37.54-18.43 45.98q-.42.25-.66-.18-4.86-8.81-14.46-13.7c-6.16-3.14-2.36-10.99 1.98-13.25a1.46 1.45 46.4 0 0 .06-2.54c-14.78-8.77-32.63-4.23-38.87 12.49q-.23.63-.44-.01-5.22-16.28 5.52-29.09ZM658.85 164.43c2.59-1.91 10.98-1.86 14.39-2.11 12.17-.88 20.12-4.06 30.3-8.14q4.01-1.6 6.08-1.66c8.31-.26 8.33 6.21 13.19 10.42 5.1 4.42 18.79-2.1 24.65-4.03 14.56-4.81 25.15 32.54 25.82 41.08.79 10.01-11.75 17.46-19.72 20.2-39.87 13.75-82.83-1.09-95.03-44.19-.81-2.86-2.42-9.54.32-11.57Zm71.46 37.79c2.59-.25 22.24-4.87 17.83-10.31a2.18 2.18 0 0 0-1.6-.8q-15.82-.63-31.35-3.39c-7.95-1.41-16.19-4.24-24.31-6.63a1.83 1.83 0 0 0-2.33 1.59c-.55 5.96 8.36 12.28 12.99 14.49q13.64 6.52 28.77 5.05ZM259.56 195.06q0 .33-.5.47a.15.14 2.8 0 1-.18-.19q8.33-23.87 30.81-30.45c35.42-10.37 54.14 21.68 49 52.28a.43.43 0 0 0 .8.29c8.02-13.67 23.26-30.24 41.19-29.22 25.53 1.46 30.8 31.12 25.45 50.73-.78 2.84-2.33 8.39-5.88 6.4q-.45-.25-.62-.74c-2.22-6.52-.86-18.72-4.6-21.42-3.77-2.72-7.06 3.29-8.04 6.54-2.35 7.8-4.07 20.06-.29 27.89 2.35 4.87 8.08 3.45 11.18.25a.4.4 0 0 1 .69.32c-1.61 14.43-12.52 26.03-27.83 25.32-24.33-1.12-33.91-29.22-37.88-48.86q-.14-.66-.62-.19c-17.12 16.76-30.87 28.76-56.01 28.87q-11.42.05-19.34-4.01c-16.05-8.22-22.18-28.59-15.41-45.33 1.51-3.76 7.41-7.43 8.83-1.01 1.16 5.26 1.69 11.45 4.14 16.26 3.03 5.94 9.76 6.36 14.81 2.45 8.5-6.58 14.2-29.02 8.7-38.9-3.38-6.05-14.17-.97-18.4 2.25Zm49.76-17.66c-11.64-2.01-22.36 53.43-23.59 61.85q-.37 2.56.53 6.06.12.47.54.72c12.16 7.2 23.35-56.51 24.24-63.29q.27-2.04-.95-4.75-.23-.5-.77-.59Zm12.49 22.17c-7.33 3.46-14.75 30.86-9.99 35.66 3.89 3.92 13.3-6.23 16.17-9.76q1.34-1.64 1.61-3.76c.61-4.86 1.13-26.35-7.79-22.14Zm40.58 63.42a2.2 2.19 45.7 0 0 2.99.04c10.73-9.72 15.59-39.75 13.51-53.27a1.67 1.66 12.4 0 0-.74-1.15c-7.67-4.98-23.95 46.6-15.76 54.38Zm-9.48-45.04c-3.89.06-7.86 6.33-9.78 9.48q-1.14 1.86-1.06 3.97c.13 3.65.8 12.89 5.43 13.85q.54.1.93-.27c5.9-5.57 7.41-17.09 6.84-24.87a2.33 2.33 0 0 0-2.36-2.16ZM133.09 206.68q.8.27.1.73c-7.07 4.6-16.84 7.69-25.32 5.35-13.26-3.65-19.41-16.32-16.13-29.24q2.89-11.38 14.54-17.03a.31.31 0 0 1 .44.3q-1.8 30.33 26.37 39.89Z"/>
  <path fill="white" d="M594.29 225.73c25.12 7.21 48.75-8.69 48.36-35.51a.48.48 0 0 1 .91-.22q7.38 14.97 4.07 30.35c-6.92 32.13-41.85 40.74-68.94 29.62-4.45-1.83-6.36 9.29-9.11 10.89q-.44.25-.94.12c-6.13-1.68-9.8-10.99-11.28-16.69-3.73-14.43-2.54-30.75 5.59-43.56a.66.65 40 0 1 1.04-.09q7.8 8.5 19.1 10.24c4.26.65 9.29-.44 13.64-.42 9.01.05-.01 12.45-2.56 14.73a.32.32 0 0 0 .12.54ZM832.94 271.06c-12.76-13.18-23.49-27.31-27.44-44.15q-.18-.77.6-.81c1.35-.09 3.13.17 4.21.11 22.25-1.19 46.61-11.63 57.5-32.26a.95.94 30.9 0 1 1.37-.34c5.23 3.55 6.19 8.25 6.49 14.85q1.19 26.03-1.17 51.97c-1.07 11.81-1.93 20.51-5.96 29.78-4.69 10.8-31.29-14.69-35.6-19.15Z"/>
  <circle cx="196.95" cy="207.25" r="12.02" fill="white"/>
  <path fill="white" d="M188.06 235.69q4.07 2.72 2.91 7.43-4.09 16.56-15.04 28.9c-9.4 10.58-25.25 18.7-39.51 19.07-7.88.2-14.48-1.83-23.18-4.31-3.5-.99-9.96.77-13.16-1.08-5.35-3.1-1.37-8.59-.61-12.83q1.78-9.98 3.59-16.85c4.6-17.49 16.58-29.45 32.98-35.72 12.35-4.73 24.33-4.65 37.71-3.04 4.07.5 5.15 1.39 5.93 5.63q1.51 8.21 8.38 12.8Zm-22.38-4.58c-1.67-4.93-7.27-5.52-11.51-3.92-3.62 1.37-3.42 6.33-2.72 9.55 1.7 7.73 8.04 19.59 16.77 21.06 4.36.74 7.41-1.7 8.53-5.71.47-1.68.99-4.24-.18-5.41-3.26-3.24-6.86-6.14-8.79-10.3q-1.19-2.57-2.1-5.27Zm-39.37 9.23c-16 14.44 5.57 46.38 25.61 33.07a1.64 1.64 0 0 0-.06-2.77c-11.73-7.08-19.2-13.55-21.3-28.04-.33-2.27-2.13-4.17-4.25-2.26Z"/>
  <circle cx="212.74" cy="234.65" r="12.02" fill="white"/>
  <circle cx="664.89" cy="245" r="11.4" fill="white"/>
  <path fill="white" d="M821.35 447.35q.09.6.29.03 7.83-21.52 20.43-40.65a.74.73-61.1 0 0-.3-1.07c-16.2-7.47-43.45-21.02-33.63-43.99 5.08-11.9 15.53-21.62 27.08-26.7q2.34-1.03 4.16.48.39.33.47.83c2.91 17.21-12.51 44.2 2.22 57.65 2.63 2.4 5.66 1.12 8.01-1.16 18.17-17.68 21.45-48.79.46-66-7.74-6.36-18.64-11.8-28.81-7.95-6.8 2.57-14.09 5.66-20.52 7.43q-16.97 4.68-34.49 4.03c-51.86-1.91-76.19-47.02-77.15-93.68a.69.69 0 0 1 1.08-.59c12.94 8.73 26.88 8.39 41.8 6.6q14.66-1.75 26.55-1.37c33.05 1.06 52.47 30.79 69.4 55.27q1.36 1.97 3.43 3.19c15.64 9.29 31.14 18.47 39.08 35.53 21.94 47.11-30.27 74.28-39.54 113.07q-.15.63.48.47c8.69-2.23 14.87-10.74 21.14-17.79 6.24-7.03 19.49-14.63 24.15-.93q1.5 4.41 1.22 7.71-2.31 26.98-21.81 44.98a.28.28 0 0 1-.47-.23c1.06-10.83-2.9-28.87-18.55-23.25-10.76 3.86-17.09 18.68-22.48 28.14q-.34.59-.58-.05-2.8-7.68-5.16-15.28c-7.97-25.68-23.87-57.35-50.77-67.51-9.75-3.69-20.8-5.83-29.75-9.35-19.33-7.6-15.29-26.63-10.99-42.53 1.56-5.75 2.47-13.28-.56-18.73a.23.22-4.4 0 1 .28-.32q16.03 5.45 21.94 21.38c3.47 9.33 6.28 18.95 12.88 26.92 7.6 9.17 19.54 16.44 28.51 25.36q22.58 22.44 32.49 52.76a.46.46 0 0 0 .9-.11c3.21-42.11-36.29-76.05-59.96-105.97q-2.31-2.92-4-7.48-.19-.54.37-.48c10.44.96 21.58 3.21 29.93 9.18 9.07 6.49 14.73 18.75 18.94 29.3q6.68 16.72 13.05 33.56c4.58 12.12 7.32 19.08 8.78 29.3ZM714.26 284.46c-.35 8.64 28.31-1.65 33.4 2.09 8.43 6.19-10.64 12.16-8.47 18.13 1.2 3.31 8.41.66 10.91-.81 7.42-4.38 21.69-14.54 30.11-10.38 6.59 3.26-12.64 14.86-7.56 21.89q.31.44.85.43c4.49-.12 10.74-7.4 14.24-10.3 7.25-6.02 14.96-2.91 22.27-2.47 6.38.38 1.77-6.28-.51-7.56-6.87-3.84-11.35-9.11-13.12-16.92-.58-2.59-1.24-9.04-4.03-10.02-4.67-1.63-4.95 9.91-5.41 12.61-1.49 8.76-11.54-.03-13.91-2.94-3.87-4.75-6.28-13.57-11.66-20.28a1.72 1.71 39.9 0 0-2.85.25c-1.97 3.65-.56 10.4-.54 14.57.03 7.39-7.35 5.74-10.61 2.12q-5.52-6.12-10.83-12.4c-1.85-2.18-6.64-5.34-8.53-1.53q-.23.45-.05.93 1.63 4.5 4.04 8.63c8.24 14.13-17.45 6.72-17.74 13.96Z"/>
  <circle cx="609.77" cy="274.22" r="11.38" fill="white"/>
  <circle cx="649.96" cy="282.44" r="19.33" fill="white"/>
  <path fill="white" d="M202.3 328.79c-17.16-7.09-19.87-28.87-13.86-44.11q4.57-11.57 10.19-18.76.34-.44.86-.27c20.78 6.64 40.32 27.78 31.02 51.3-4.52 11.43-17.12 16.42-28.21 11.84ZM308.39 316.69c.2-10.96-.62-23.67 1.97-34.32 1.6-6.62 4.19-12.28 11.42-12.22 10.83.08 21.67 16.73 24.67 25.75q.19.58-.4.46-9.83-1.88-15.35 5.59-6.8 9.21-11.32 19.6a.19.19 0 0 0 .28.23q12.53-8.8 26.31-15.26c14.96-7.01 39.92-10.94 50.46 6.23 6.03 9.84 3.34 22.27-3.38 31.26a.1.1 0 0 1-.17-.04c-6.29-27.31-49.33-19.49-67.23-13.47q-.82.27.03.47c15.68 3.61 38.23 6.87 38.1 27.79-.12 19.84-16.32 27.26-31.09 35.41a.33.32-8.6 0 1-.48-.35c4.85-23.53.2-39.5-19.29-53.8a.34.34 0 0 0-.53.19c-.63 2.47-1.33 4.87-2.56 7.19-2.29 4.35-15.84 24.47-5.98 26.88q.51.12.46.64-.98 11.73-2.25 23.33c-.45 4.03.01 10.08 5.1 11.54q.48.14.63.61c2.45 8.08 2.8 17.91 3.98 23.85q.9 4.53 5.62 5.25.5.07.69.55c3.09 7.76 5.03 12.95 10.02 18.09 3.67 3.78 5.04 6.07 1.61 10.54q-4.33 5.65-10.48 6.57c-5.19.79-7.44-7.94-10.63-10.6-3.83-3.19-12.49-10.04-14.03-14.64q-.16-.48.1-.91c2.36-3.87.52-9.07-1.74-12.54-5.27-8.08-9.84-14.96-10.32-23.28q-.03-.51.34-.85c3.52-3.21 2.76-7.71 1.45-11.77-2.89-8.97-6.64-18.16-6.63-25.66q0-.59.59-.51 2.6.35 4.12-1.84.27-.39.31-.86c1.11-13.05 3-25.9 12.02-35.34a.39.38 24 0 0-.25-.65c-25.25-1.9-52.9 9.49-64.46 33.16a.4.4 0 0 1-.76-.16q-.2-4.08-.35-7.8-.66-16.7 9.71-29.55c13.91-17.23 39.97-10.58 58.68-7.17q.95.17.38-.61-9.28-12.46-23.46-19.16c-7.51-3.54-22.16-7.32-26.96 2.62q-.31.63-.45-.06c-2.23-11.26-1.72-29.85 12.79-32.36 22.44-3.87 39.87 24.98 48.13 42.11q.56 1.15.58-.13Z"/>
  <circle cx="580.85" cy="290.35" r="12.04" fill="white"/>
  <path fill="white" d="M158.94 330.06c-6.2-4.47-7.87-12.91-5.74-20.11 2.74-9.29 11.05-16.14 20.19-18.96a.29.29 0 0 1 .36.36q-6.78 22.54 9 39.23.4.42-.06.77-1.68 1.3-3.63 1.66c-7.72 1.42-13.63 1.73-20.12-2.95Z"/>
  <circle cx="615.25" cy="313.78" r="18.48" fill="white"/>
  <circle cx="683.44" cy="308.01" r="12.62" fill="white"/>
  <path fill="white" d="M118.45 321.43c-15.19 1.96-20.59-13.83-19.24-25.77a.29.29 0 0 1 .51-.15c9.21 11.52 25.35 13.77 39.1 11.68q1.86-.29.71 1.2c-4.87 6.34-12.53 11.94-21.08 13.04Z"/>
  <circle cx="575.68" cy="333.26" r="17.21" fill="white"/>
  <circle cx="651.17" cy="329.3" r="12.01" fill="white"/>
  <path fill="white" d="M97.44 352.06c-7.44-6.1-8.98-20.57-8.72-29.46a.21.2 30.8 0 1 .38-.09c7.13 11.81 16.82 18.54 31.28 17.52q12.63-.89 24.93-4.34a.29.29 0 0 1 .27.5c-10.57 9.26-34.03 27.45-48.14 15.87Z"/>
  <circle cx="685.89" cy="346.36" r="14.22" fill="white"/>
  <circle cx="611.29" cy="353.65" r="12" fill="white"/>
  <path fill="white" d="M169.06 427.48c8.05.35 22.02-31.81 23.91-37.28 2.83-8.21 5.6-18.42 10.35-22.98 3.86-3.72 8.04-1.05 8.85 3.65 2.09 12.06-4.4 30.39-8.74 41.74-9.76 25.52-22.46 49.79-34.69 74.42-9.99 20.1-19.07 44.25 1.99 61.18a.27.27 0 0 1-.19.48c-14.93-1.37-26.83-1.9-33.6-17.47a.52.51 44.3 0 0-.95.01q-2.17 5.37-4.18 10.99c-9.65 27.08 10.93 41.97 27.88 58.09 4.88 4.64 9.37 11.5 10.83 18.04 2.25 10.1-1.2 18.39-5.56 27.33q-.27.57-.72.13c-1.4-1.39-2.77-2.96-4.38-4.01-22.19-14.55-39.11-29.13-44.59-56.55-8.67-43.4 12.79-72.3 35.93-105.31 4.85-6.92 10.44-17.69 5.64-26.02-1.57-2.72-4.74-5.45-7.18-7.89-3.62-3.61-9.32-13.04-15.3-11.45-3.75 1-6.08 5.17-6.97 8.77q-2.19 8.91 2.59 16.66c3.26 5.29 5.38 8.4 3.01 15.06q-3.18 8.97-9.53 17.14c-20.04 25.83-26.08-14.89-27.3-25.89q-3.93-35.15 3.02-69.78c1.09-5.43 5.45-23.47 12.27-23.87 3.3-.19 4.15 2.54 3.81 5.33-.16 1.28-4.56 43.62 5.59 39.3 4.03-1.71 6.05-12.91 6.63-16.05 2.45-13.31 4.3-30.47 10.76-42.21 2.51-4.56 10-7.52 11.57-.08q.49 2.34.29 4.78-1.31 15.7-4.67 31.09c-.91 4.16-4.3 21.08.96 22.55 4.02 1.13 7.93-11.56 8.92-14.61q6.44-19.88 13.72-39.46c1.65-4.43 8.75-21.79 15.6-12.67 2.94 3.92-.26 15.58-1.64 20.11q-6.13 20.09-12.55 40.1c-1.37 4.27-4.18 12.8-2.14 16.17q.26.44.76.46Z"/>
  <circle cx="648.75" cy="372.21" r="20.88" fill="white"/>
  <path fill="white" d="M374.93 463.46c-11.85-7.22-29.78-16.51-34.58-28.96-4.7-12.2 3.31-18.5 11.64-25.22 8.72-7.03 18.08-12.55 25.74-20.02 9.36-9.12 8.32-19.57 3.56-30.93q-.39-.95.51-.44 8.18 4.6 16.7 13.62 18.87 19.98 2.38 42.34-4.9 6.64-9.95 13.03c-4.55 5.77-5.3 12.72-.8 18.76 5.63 7.55 14.99 11.55 18.57 20.52q3.81 9.54-1.83 19.46c-6.69 11.76-17.39 25.62-18.5 39.43-1.34 16.65 9.96 29.09 25.95 32.15q1.05.2.02.48c-36.31 9.64-83.13-21.78-75.43-62.61q3.09-16.33 15.02-27.79.38-.36.77-.01c4.45 4 24.18 18.68 28.37 7.96 1.95-4.98-4.47-9.53-8.14-11.77ZM229.92 411.7a.31.31 0 0 0-.57-.21c-5.82 8.38-7.68 18.06-7.91 28.79q-.36 16.73-.14 33.47c.1 8.38-1.05 17.44-6.12 24.43-12.17 16.77-39.86 6.74-32.49-14.73a1.67 1.67 0 0 1 2.64-.75c3.2 2.61 5.02 5.38 9.59 5.62 12.75.66 14.4-13.99 14.48-23.26.11-12.39.28-25.92 2.67-37.28 6.08-28.82 25.01-52.73 49.51-68.24a.22.22 0 0 1 .32.27c-22.01 46.31 10.39 87.33 35.09 122.95 8.27 11.93 19.07 27.07 19.72 41.17.74 16.34-11.93 29.56-28.71 28.57-17.65-1.05-28.86-22.42-14.79-35.88a.99.99 0 0 1 1.66.53c.43 2.23.53 4.75 1.67 6.63 2.6 4.28 7.2 6.02 12.06 4.57 13.79-4.12 4.79-23.68.19-31.13-21.47-34.84-43.57-67.98-43.87-107.47a.28.27-33.9 0 0-.53-.1c-7.76 18.12-6.82 36.38-.34 55.58 6.11 18.09 13.23 35.23 15.59 54.83 1.86 15.43-12.15 30.76-27.97 22.9-7.61-3.78-11.49-14.46-6.57-22.25a.82.82 0 0 1 1.48.21c1.56 5.37 7.77 7.65 12.36 4.51 12.32-8.39-2.32-47.37-5.82-58.75q-5.29-17.22-3.2-34.98ZM565.76 443.31c12.79-2.23 15.5 11.79 24.77 14.77 5.82 1.88 10.09-4.41 9.72-9.57q-.58-7.9-7.68-12.86c-7.81-5.44-17.15-9.67-25.32-15.92-19.1-14.59-9.97-39.87-.36-56.62q.33-.58.46.08c4.65 23.91 38.45 14 37.6 42.51q-.27 8.89-.68 17.81c-.22 4.82-.06 12.99 6.39 12.21 9.5-1.15 3.23-19.83 4.73-26.61 1.71-7.73 9.54-10.58 16.98-8.36 8 2.4 14.99 7.71 23.18 9.73q4.29 1.06 8.8 1.29a.45.45 0 0 1 .4.59c-4.36 13.62-26.75 16.21-37.5 23.11-5.85 3.75-9.23 13.62-3.73 19.74 3.79 4.24 23.37 9.71 23.18-.22q-.1-5.06-.22-9.73a2.05 2.05 0 0 1 2.67-2.01q5.39 1.7 9.99 4.82c10.13 6.88 19.13 13.73 27.32 23.69 5.31 6.44-4.78 9.72-9.24 11.18q-15.71 5.15-32.18 6.55c-9.52.81-2.28-9.17-.78-12.5 3.92-8.73-15.78-7.36-20.07-7.06-14.06.97 2.2 20.18 4.97 24.15 5.69 8.12 1.05 15.63-8.36 16.08q-9.82.48-16.7-5.02c-11.83-9.46-4.28-19.79.86-29.72 1.58-3.05 2.39-6.76-1.67-7.97-5.86-1.76-12.25 8.04-16.14 12.72q-15.24 18.35-39.33 19.96a.21.21 0 0 1-.15-.37c10.38-8.48 11.94-17.76 11.03-30.75-.5-7.16-3.63-23.84 7.06-25.7Z"/>
  <circle cx="687.25" cy="384.4" r="11.47" fill="white"/>
  <path fill="white" d="M667.33 432.56c3.68-.36 17.99.45 17.58-5.12q-.57-7.7-.43-15.6a1.65 1.64-83.7 0 1 1.97-1.58c3.17.65 9.11 10.09 11.13 12.95 4.46 6.33 13.45-10.92 19.21-10.34q.52.06.69.55c1.94 5.68-1.78 19.61-3.3 25.67-1.84 7.38-2.75 16.11.2 22.65 3.85 8.52 12.36 7.48 16.24-.3q4.34-8.73 3.63-18.52c-.58-8.15-3.21-22.57-.76-24.73q.43-.37.96-.21c6.82 2.06 9.15 17.42 18.2 10.91q5.69-4.09 11.41-8.23a1.05 1.05 0 0 1 1.31.07c2.31 2.09-5.25 16.34-6 19.72q-.12.54.3.9c3.01 2.59 12.18 3.91 16.34 5.16a1.13 1.13 0 0 1 .67 1.61c-.85 1.57-2.59 2.38-4.47 2.74-13.05 2.49-34.9 6.07-36.18 18.83-1.33 13.33 28.18 6.75 34.29 4.61q8.77-3.08 17.33-6.8 1-.44 2.1-.57 2.8-.33 1.32 2.07-3.89 6.31-8.23 12.33c-3.41 4.74-1.64 7.11 2.82 9.83q6.42 3.92 13.15 7.78a1.19 1.19 0 0 1-.26 2.18q-1.79.52-4.03.25-9.54-1.14-14.27-.42c-6.49.99-1.09 18.11-5.68 19.55q-.51.16-.89-.21c-.71-.68-1.5-1.37-2-2.22-7.61-12.78-16.44-31.07-32.95-33.05-12.98-1.56-7.03 15.78-3.4 21.61 8.1 13 18.23 17.95 31.42 25.77q2.22 1.32-.23 2.14c-5.07 1.69-10.99 1.39-14.82 2.25-4.74 1.06-3.55 4.68-3.06 8.33.5 3.61 2.62 12.65 1.21 15.68q-.19.42-.6.63c-2.76 1.48-12.17-11.62-14.12-14.05q-2.96-3.65-6.65-.65-5.38 4.37-11.04 8.36a1.41 1.41 0 0 1-2.22-1.19c.15-6.4 4.69-14.34 6.9-20.41 4.32-11.89 5.38-20.75 2.62-32.49-2.04-8.7-8.54-12.37-15.61-5.41q-8.86 8.71-11.71 20.61c-1.7 7.08-1.57 17.97-2.83 26.62q-.28 1.94-1.37 3.88-.26.48-.8.55c-6.85.86-1.64-23.44-15.24-15.15q-5.67 3.46-11.87 6.29a1.07 1.07 0 0 1-1.46-1.32c1.84-5.32 4.82-9.9 7.48-14.82 1.23-2.28 1.41-4.23-1.42-5.15-4.99-1.64-12.58-2.78-16.85-5.4q-2.6-1.59.34-2.39c17.84-4.89 41.8-7.65 50.99-26.65 3.44-7.09.48-16.73-4.34-22.48-7.59-9.04-20.43-15.72-30.53-21.67q-2.67-1.58-3.58-3.44a1.74 1.74 0 0 1 1.39-2.51ZM821.5 529.94c-1.26-1.64-2.6-3.29-3.5-4.98-5.78-10.8-4.79-25.81 6.41-32.58 7.96-4.81 17.22-3.32 24.06 2.83 8.75 7.85 12.99 21.36 13.64 32.74 1.59 27.85-11.3 55.11-31.52 73.53a.31.3-21.5 0 1-.51-.22c-.43-24.15-19.47-29.5-38.09-38.51-10.51-5.08-14.58-15.35-10.99-26.31 5.89-17.96 28.49-15.66 40.33-6.33q.76.6.17-.17ZM434.11 556.28c-2.63-8.09-18.23-13.28-23.63-20.27-8.42-10.89-1.32-24.59 5.73-34.43a.29.29 0 0 1 .52.12c1.24 8.65 5.2 17.81 12.51 23.18 5.16 3.78 13.34 6.71 19.77 9.87 18.31 9.01 22.91 26.22 20.22 45.24-3.87 27.45-23.8 46.72-50.73 51.45-16.43 2.88-31.88 1.9-46.67-5.67-23.76-12.17-43.17-40.79-36.94-68.28 1.23-5.39 6.14-9.51 10.99-4.59 3.81 3.85 7.76 8.05 11.9 11.02 13.45 9.64 27.78 11.02 43.9 11.21 8.04.09 37.12-4.48 32.43-18.85Zm-13.6 52.55c-.21 7.93 11.31 2.85 13.92 1.1 8.97-5.99 21.3-21.2 18.72-32.98-.8-3.66-4.22-5.33-7.32-2.87-6.88 5.46-11.55 7.42-18.58 10.79-4.53 2.18-5.2 3.92-5.71 8.64q-.83 7.65-1.03 15.32ZM602.36 653.82q-2.11-.56-6.87-1.56c-5.21-1.1 2.7-9.59.94-13.76-1.38-3.26-4.68-2.35-7.47-1.21-17.41 7.19-39.07 12.45-55.93.4-5.65-4.03-9.83-10.01-8.91-16.92.77-5.84 10.75 2.49 11.16-3.53.28-4.14.41-18.75 8.41-13.93 3.43 2.06 7.62 5.94 11.17 8.17 23.57 14.76 53.08 14.29 79.22 7.96 6.42-1.55 11.6-3.73 16.69-7.38a.26.26 0 0 1 .42.22c-2.29 48.08-41.32 80.51-89.23 76.67-29.33-2.35-53.95-17.78-68.19-43.74-33.21-60.51 11.25-132.5 79.48-132.22q10.21.04 18.68 3.8c5.07 2.26 8.38 8.9.48 10.85-5.54 1.37-11.62 1.62-15.84 6.13a1.35 1.34 26.2 0 0 .77 2.25c5.8.94 15.31 2.94 15.95 10.46.55 6.54-7.61 8.9-13.04 8.56-11.91-.75-22.39-2.76-31.67 6.81a.31.31 0 0 0 .17.52c11.77 2.13 12.27 14.41.73 18.09-17.66 5.64-36.33 8.87-39.75 31.05q-3.11 20.2 9.89 35.67c17.01 20.22 44.8 26.92 69.87 20.77 5.38-1.32 16.12-6.02 13.67-13.38q-.2-.59-.8-.75Z"/>
  <path fill="white" d="M625.53 601.22c-19.37-3.79-23.48-23.38-17.92-39.48 5.25-15.19 11.87-28.16 2.1-41.39q-.41-.54.26-.42c25.82 4.87 47.23 24.52 48.44 51.6.83 18.68-13.73 33.43-32.88 29.69Zm.11-44.47c-3.12 14.73 16.29 13.94 14.15-.22q-1.14-7.5-7.62-12.19-2.6-1.88-4.46-.22-.4.36-.44.9-.41 5.99-1.63 11.73ZM231.86 578.09c4.04 14.14-.93 25.89-16.32 27.99q-15.01 2.06-21.36-13.87-.19-.49-.67-.28c-33.21 14.6-43.88-33.46-11.66-36.65a.44.44 0 0 0 .37-.58c-9.39-27.36 28.78-39.78 37.96-13.08q.19.56.67.22c15.07-10.54 35.58 3.34 30.17 21.07-2.55 8.33-10.11 13.62-18.75 14.57q-.57.06-.41.61Zm-12.83-11.07a11.41 11.41 0 0 0-11.41-11.41 11.41 11.41 0 0 0-11.41 11.41 11.41 11.41 0 0 0 11.41 11.41 11.41 11.41 0 0 0 11.41-11.41ZM689.84 604.59c-10.73 1.97-21.67-4.2-22.89-15.54-1.49-13.83 10.1-22.7 2.87-36.38q-.3-.57.35-.54c13.94.68 28.41 7.34 34.27 20.6 5.82 13.19-.03 29.19-14.6 31.86ZM272.73 593.55c-7.32-2.16-17.87-7.53-10.98-16.88 7.5-10.17 26.7-9.7 36.94-5.62 21.85 8.71 26.73 33.09 32.11 52.14 3.25 11.5 15.29 6.78 23.78 8.11 15.09 2.35 29.33 17.12 32.4 31.9 1.84 8.83-3.07 14.78-12.02 16.25-14.27 2.33-27.22-2.68-38.38-11.28-11.36-8.76-12.92-23.64-15.75-36.94-5.49-25.89-26.11-31.18-48.1-37.68Zm72.05 57.86c3.14 6.46 20.52 16.92 26.72 11.3 4.39-3.98-2.56-11.84-6.08-14.38-4.61-3.34-10.63-7.06-15.85-5.75-3.82.96-6.65 5.01-4.79 8.83ZM592.42 605.76c-9.6 7.06-21.55.55-21.91-11.01-.24-7.7 5.19-14.58-1.19-22.83q-.37-.47.23-.47c9.72.01 20.3 4.37 25.56 12.87 4.35 7.05 4.39 16.23-2.69 21.44ZM732.68 608.19c-14.22 12.43-26.36 26.33-41.88 37.35-4.79 3.4-18.05 11.06-22.79 5.45-5.27-6.26-10.79-20.49.71-23.87 17.95-5.27 31.29-9.09 44.16-23.72 12.71-14.45 20.66-26.93 41.81-28.78 26.33-2.31 50.01 13.4 55.6 39.99q4.47 21.29-5.76 41.44c-12.1 23.82-31.23 45.36-53.15 60.61-8.77 6.1-17.36-4.25-19.46-11.74-1.35-4.8 1.42-7.5 5.64-9.54 18.45-8.94 32.22-18.74 42.24-37.24 2.45-4.52 4.87-11.22 4.61-15.81-.22-3.94-4.87-7.89-7.82-3.75-10.59 14.88-25.56 42.22-44.48 47.7-12.95 3.75-28.47-5.79-36.64-15.49-4-4.76-3.28-8.57.76-12.92 7.71-8.29 17.74-15.07 26.68-22.01 7.13-5.54 20.37-15.71 18.73-25.32-.95-5.59-5.39-5.47-8.96-2.35Zm28.53-13.84c-3.71 16.46 13.41 26.93 27.64 22.18 4.23-1.41 7.48-3.84 7.14-8.54-.74-9.89-11.57-17.49-20.3-19.98-6.38-1.81-12.83-.98-14.48 6.34ZM282.17 661.58q-13.77 3.12-24.35-5.13c-8.45-6.6-4.45-18.62 7.06-17.61 11.48 1 20.78 9.45 25.42 19.56 8.88 19.36-2.76 38.72-24.43 38.75-18.05.02-33.78-8.25-43.09-23.69-10.91-18.08-11.53-41.58 7.09-55.18 18.09-13.22 44.99-7.05 61.1 6.25 20.51 16.94 29.25 46.46 26.55 71.98-3.25 30.65-28.27 44.76-56.73 43.85-36.01-1.15-67.5-23.87-79.52-58.12-6.63-18.91-2.39-40.37 12.22-54.27 2.73-2.6 6.08-4.77 9.5-5.92q1.38-.46 1.05.95c-8.44 36.44 7.04 75.79 46.19 85.03 20.03 4.73 47.53 1.27 51.27-24.03 3.14-21.2-6.03-43.63-26.01-52.98-9.83-4.6-23.73-4.87-32.64 1.55-9.12 6.56-8.1 20.61-2.73 29.22 7.14 11.49 23.13 18.07 36.29 12.51 5.32-2.25 7.96-6.25 6.45-12.29q-.14-.55-.69-.43Z"/>
  <path fill="white" d="M444.86 661.08a.46.45-43.7 0 0 .73.01c5.59-7.24 1.89-12.08.12-19.83-2.92-12.8 14.87-15.15 16.73-1.07q.08.57.56.27c12.38-7.61 21.65 7.03 12.22 15.46q-.44.39.07.67c11.18 6.07 2.95 22.29-9.03 14.04-3.52-2.41-9.87-4.49-13.1-.04q-.33.45-.12.96c6.52 15.58-.43 29.99-13.16 39.52-19.66 14.71-49.47 20.41-71.53 9.06-7.58-3.89-17.18-13.03-16.53-22.38q.04-.51.49-.74 2.4-1.25 4.95-.8 9.15 1.62 17.51 1.69c19.14.14 24.12-14.71 31.03-29.34 6.09-12.9 17.42-19.81 31.64-13.52q4.63 2.04 7.42 6.04ZM631.39 710.04c-3.81-1.38-8.13-3.89-8.13-8.73-.01-3.64-.87-12.07.79-15.07 8.09-14.61 63.15-18.38 64.81 2.71q.48 6.04-.63 11.03c-1.25 5.64-13.2 10.49-18.23 11.8q-19.6 5.13-38.61-1.74Z"/>
  <path fill="white" d="M506.19 801.21a.47.46-24.1 0 0-.67-.25c-19.3 10.74-37.56 17.73-59.51 18.3-19.46.51-41.15-2.85-59.36-11.29-10.75-4.99-21.11-12.47-31.63-19.99-8.57-6.11-17.07-6.96-27.34-7.43-20.73-.94-36.36-10.88-49.83-25.96a.18.18 0 0 1 .16-.29c29.69 4.49 61.11-4.84 56.17-42.06q-.09-.73.6-.48 2.7.96 5.25 2.73 20.68 14.33 26.29 38.61c.72 3.08 1.6 3.75 4.43 4.67 18.03 5.88 40.21 4.36 43.92-18.37a1.62 1.62 0 0 1 1.47-1.36c30.74-2.52 57.58-20.04 65.08-51.24a.45.45 0 0 1 .6-.31q18.07 7 30.79 21.57.33.38.82.26c17.51-4.38 33.59-1.82 50.99 3.18q.52.15.64-.39.93-4.09 1.75-5.51c2.04-3.51 8.27-3.54 10.86-.59 3.51 4.02 1.71 11.11 5.86 15.02 3.83 3.61 9.84 6.25 6.69 12.95q-2.7 5.72-9.36 3.91a2.48 2.47 17.1 0 0-2.99 1.58c-4.42 13-8.72 38.24-23.84 43.18-7.83 2.55-18.73-.14-25.74-4.44q-12.98-7.98-20.3-21.37c-2.57-4.71-5.29-11.89-9.13-14.93-10.66-8.44-19.9 5.96-26.71 11.82q-25.12 21.61-57.81 25.52c-10.58 1.27-22.54.79-33.68-.08a.76.75 68.7 0 0-.57 1.31c15.02 14.01 47.33 10.39 65.11 5.12 15.08-4.46 25.93-12.9 38.35-23.54 7.84-6.71 11.87 4.04 14.61 8.97 14.8 26.63 42.9 32.04 70.84 28.7 4.3-.51 7.77 2.58 5.32 6.85-6.14 10.71-29.57 12.26-41.07 12.4-11.36.14-23.19-5.43-27.06-16.77Zm46.15-62.24a12.01 12.01 0 0 0-12.01-12.01 12.01 12.01 0 0 0-12.01 12.01 12.01 12.01 0 0 0 12.01 12.01 12.01 12.01 0 0 0 12.01-12.01ZM617.24 794.76c-14.48-.27-26.01-11.12-25.28-26.02.82-16.59 9.93-34.17 22.06-45.22 1.35-1.23 4-1.73 5.98-1.03 27.65 9.81 57.82 2.87 80.48-14.29 1.03-.78 2.13-.94 3.28-.66 11.41 2.8 15.41 14.9 14.47 25.47-1.74 19.68-20.67 37.18-37.64 46.37q-29.56 16.02-63.35 15.38Zm67.82-60.06a1.76 1.74-34.3 0 0-2.22-.41q-18.02 10.25-38.87 9.08a.72.72 0 0 0-.75.82c1.43 9.68-.39 17.36-3.48 27.77q-.16.54.41.55 13.13.05 24.61-5.18c12.3-5.6 20.76-13.04 21.97-26.78q.3-3.41-1.67-5.85ZM224.68 1035.93c11.69-13.67 21.45-29.09 34.2-41.8 10.77-10.73 18.05-7.62 23.41 5.57 5.41 13.35 8.59 24.94 13.92 41.06 3.25 9.82 12.86 33.75 27.77 24.67 5.49-3.34 14.25-16.64 14.63-23.59.74-13.62 2.76-25.65 9.1-38.62 5.39-11.05 18.88-15.17 24.37-.87 4.65 12.11 3.75 25.77.07 37.98q-.91 3.03-.77 5.59c2.28 41.35 46.7 40.94 64.79 11.55q.25-.42.09-.88c-11.38-33.17-15.41-67.87-8.64-102.33 3.85-19.59 19.21-74.73 50.51-59.43 13.72 6.7 18.76 22.77 20.06 36.92 3.11 34.05-2.03 68.64-17.1 99.54q-6.15 12.59-12.67 24.98-.23.45-.1.94c2.76 10.01 13.32 18.9 22.37 23.12 6.71 3.12 19.85 4.13 25.31-2.22q.33-.39.22-.89c-6.1-28.01 2.74-58.61 23.03-78.95 24.02-24.08 46.67-4.43 50.53 22 3.59 24.55-18.84 42-37.2 53.05a.69.69 0 0 0-.06 1.15c6.4 4.86 13.34 6.87 21.46 5.99 27.72-3.02 44.23-37.45 52.71-60.1 2.33-6.21 10.6-38.12 22.5-30.78 3.8 2.35 7.57 15.97 8.78 20.43q4.67 17.14 9.28 34.31 4.41 16.41 10.49 26.18c6.05 9.73 14.71 11.99 21.19.99 7.57-12.83 9.42-25.72 5.99-40.16-3.71-15.58-3.19-44.46 16.65-50.13 18.3-5.23 15.38 21.47 13.94 30.8-3.71 24.16-12.29 48-26.58 67.89-8.09 11.25-21.51 22.33-35.47 23.03-23.14 1.14-27.89-25.42-33.35-41.85-4.55-13.7-10.18-7.43-16.05-.28-18.91 23.04-37.14 40.28-68.6 42.86-12.95 1.06-23.74-3.89-32.28-13.44q-.37-.41-.84-.12c-11.73 7.26-24.04 13.22-37.59 12.92-13.66-.29-22.46-8.2-31.57-17.19-3.55-3.49-8.11-5.82-12.9-3.04q-3.42 2-13.83 9.41c-13.62 9.69-39.43 16.91-53.89 6.05-5.81-4.37-9.49-10.3-14.14-18.01-1.86-3.09-6.26-11.42-9.52-12.73-4.07-1.65-8.25 4.07-10.19 6.94-5.69 8.42-16.7 27.36-26.45 28.94-9.93 1.61-17.26-10.16-20.82-17.51q-6.91-14.29-13.56-28.71c-4.31-9.36-12.86-22.53-25.17-14.16-25.02 17.01-43.79 41.3-68.78 57.91-6.94 4.62-15.57 1.2-14.48-7.93q.76-6.35 3.51-15.88c5.83-20.16 11.17-40.41 16.6-60.67 2.26-8.44 5.17-13.87 13.69-15.59 2.32-.48 3.88.87 4.4 2.98 1.58 6.37 6.12 31 11.76 33.89q2.6 1.34 5.27-1.78Zm231.28-11.14c.94 2.99 4.35 6.43 6.97 2.65q3.95-5.69 6.32-12.18 11.03-30.2 10.8-62.33c-.05-6.55-.92-16.31-4.42-21.86-4.5-7.15-13.66-5.15-16.61 2.25-5.08 12.72-6.49 25.4-7.1 40.17-.67 16.07-.82 35.8 4.04 51.3Zm107.84.17c-1.64-6.18-6.91-12.32-14-9.23-18.06 7.86-15.16 33.41-6.48 46.75q.26.39.71.26c16.77-5.05 24.02-21.75 19.77-37.78Z"/>
  <path fill="white" d="M368.66 942.82c-8.8 1.69-17.49-4.14-19.11-13.33q-2.76-15.7 8.06-24.81c8.22-6.91 21.89-5.8 27.05 4.27 6.24 12.18-2.31 31.23-16 33.87ZM120.81 944.1c-1.38-12.64 4.9-30.27 19.42-32.37 14.43-2.09 17.58 21.25 18.58 31.22 2.26 22.65 2.46 46.1.29 68.77-5.48 57.28-41.88 108.82-107.52 90.57-67.65-18.82-55.09-118.43-38.72-166.41 4.39-12.87 10.75-19.68 24.69-21.42 12.81-1.59 9.29 17.33 7.85 24.82-3.53 18.39-6.86 37.36-7.61 56.02q-.74 18.51.49 37.02c1.66 24.78 11.17 54.38 41.18 55.8 29.74 1.41 42.64-23.93 48.28-48.62 4.27-18.76 6.41-37.78 3.65-55.93-1.94-12.76-9.05-25.54-10.58-39.47ZM862.57 1047.48a.35.35 0 0 0-.66-.07c-14.7 31.6-41.08 59.57-79.14 55.78-22.47-2.23-34.38-17.9-36.38-39.02-2.54-26.8 9.3-60.38 36.43-70.99 39.44-15.42 65.24 39.52 29.48 61.85-9.01 5.63-18.71 9.19-28.62 13.23-3.57 1.45-6.06 3.75-3.47 7.47 4.11 5.94 18.5 7.37 24.57 6.31 27.22-4.73 43.95-35.91 51.65-59.27 2.76-8.35 5-20.63 12-26.47 2.88-2.4 8.48-4.46 10.42.38q1.38 3.43 1.97 7.1 2.55 15.76 4.56 31.6c.7 5.55 3.05 22.03 9.95 22.84q.49.06.92-.19 1.75-1.01 2.49-2.57c14.84-31.5 27.43-76.24 70.24-77.73 12.72-.45 27.42 5.31 30.29 18.87 3.02 14.25-7.36 23.76-21.83 20.92-7.45-1.46-9.99-5.73-13.75-12.46-.98-1.75-3.82-2.35-5.86-2.11-9.52 1.12-16.57 8.33-21.78 15.82-14.38 20.68-23.82 44.57-34.06 67.47q-2.87 6.4-6.82 12.17c-4.44 6.49-13.09 7.23-17.39.04-4.02-6.72-6.12-13.58-8.16-22.21q-3.41-14.47-7.05-28.76Zm-66.01-32.04q-6.97-3.95-13.55-.96c-13.85 6.3-13.38 30.13-10.35 42.21q.12.45.57.37c11.58-2.02 25.07-9.66 28.74-21.12 1.86-5.82 1.07-16.83-5.41-20.5Z"/>
</svg>
